<svg width="94" height="65" viewBox="0 0 94 65" fill="none" xmlns="http://www.w3.org/2000/svg">
<path d="M2.45759 7.19055C2.9671 7.15465 3.06444 7.12683 3.06444 6.16989V2.26721C3.06444 1.88825 3.05389 1.87075 2.77221 1.87075H2.16557C1.16829 1.87075 0.875414 1.9697 0.473788 2.70092C0.3982 2.75521 0.170791 2.72829 0.127075 2.63787C0.31163 2.15031 0.473788 1.58984 0.550452 1.27393C0.571341 1.24678 0.615703 1.23758 0.669109 1.23758C0.712394 1.23758 0.755895 1.24678 0.777645 1.27393C0.832344 1.49987 0.983519 1.50929 1.72044 1.50929H6.14415C6.67477 1.50929 6.83714 1.48192 6.96765 1.27393C7.01115 1.25598 7.05465 1.23758 7.09772 1.23758C7.16254 1.23758 7.2168 1.25598 7.23877 1.2829C7.1298 1.65378 7.04302 2.42943 7.07575 2.71909C7.0217 2.79179 6.83714 2.80974 6.74002 2.74624C6.59918 2.04127 6.39331 1.87075 5.23322 1.87075H4.61539C4.33349 1.87075 4.32186 1.88825 4.32186 2.26721V6.16989C4.32186 7.12683 4.42049 7.15465 4.92958 7.19997L5.31915 7.23587C5.39624 7.29937 5.38461 7.46159 5.29804 7.49771C4.66965 7.47999 4.18124 7.47034 3.70424 7.47034C3.22832 7.47034 2.71751 7.47999 2.02452 7.49771C1.93709 7.46159 1.92675 7.28142 2.00255 7.23587L2.45759 7.19055Z" fill="white"/>
<path d="M17.9194 1.56243C18.0495 1.58958 18.1253 1.599 18.223 1.6174C18.2448 1.8245 18.2659 2.35782 18.3748 3.02644C18.2988 3.09779 18.1033 3.10722 18.0279 3.04462C17.8434 2.47472 17.3554 1.7251 15.9246 1.7251C14.5479 1.7251 13.1604 2.53889 13.1604 4.39016C13.1604 6.31458 14.6019 7.25311 16.0006 7.25311C17.3666 7.25311 17.9631 6.49497 18.2659 5.90757C18.3641 5.8259 18.5366 5.86247 18.5915 5.94347C18.5155 6.54859 18.223 7.14519 18.0708 7.31706C17.9413 7.33456 17.8113 7.37023 17.6915 7.39761C17.4527 7.46133 16.7052 7.61502 16.0006 7.61502C14.9275 7.61502 14.0058 7.43418 13.2258 7.009C12.347 6.53109 11.6857 5.70855 11.6857 4.52545C11.6857 3.46823 12.2497 2.64703 13.0516 2.13211C13.854 1.62593 14.9497 1.36386 16.0435 1.36386C16.6615 1.36386 17.4099 1.45429 17.9194 1.56243Z" fill="white"/>
<path d="M29.7466 4.84207C29.7466 4.59841 29.7141 4.58024 29.1609 4.58024H26.6249C26.0721 4.58024 26.0389 4.59841 26.0389 4.84207V6.16967C26.0389 7.12683 26.1376 7.15465 26.6464 7.19997L26.9714 7.23587C27.0472 7.29937 27.0367 7.46136 26.9501 7.49771C26.3863 7.47976 25.8983 7.47034 25.4213 7.47034C24.9448 7.47034 24.4566 7.47976 24.0446 7.49771C23.958 7.46136 23.9477 7.29937 24.0233 7.23587L24.1749 7.21792C24.6844 7.15465 24.7815 7.12683 24.7815 6.16967V2.80974C24.7815 1.8528 24.6844 1.82475 24.1749 1.77091L23.9358 1.74353C23.8605 1.69866 23.8712 1.51782 23.958 1.48192C24.4346 1.49987 24.9448 1.50929 25.4213 1.50929C25.8983 1.50929 26.3863 1.49987 26.8088 1.48192C26.8956 1.51782 26.9066 1.69866 26.831 1.74353L26.6464 1.77091C26.1376 1.82475 26.0389 1.8528 26.0389 2.80974V3.90219C26.0389 4.15528 26.0721 4.17345 26.6249 4.17345H29.1609C29.7141 4.17345 29.7466 4.15528 29.7466 3.90219V2.80974C29.7466 1.8528 29.6488 1.82475 29.14 1.77091L28.9012 1.74353C28.8258 1.69866 28.8359 1.51782 28.9235 1.48192C29.4219 1.49987 29.9092 1.50929 30.3864 1.50929C30.8634 1.50929 31.3508 1.49987 31.7849 1.48192C31.8717 1.51782 31.882 1.69866 31.806 1.74353L31.6118 1.77091C31.1014 1.82475 31.004 1.8528 31.004 2.80974V6.16967C31.004 7.12683 31.1014 7.15465 31.6118 7.20872L31.8501 7.23587C31.9257 7.29937 31.915 7.46136 31.8284 7.49771C31.3508 7.47976 30.8634 7.47034 30.3864 7.47034C29.8875 7.47034 29.4001 7.47976 28.9235 7.49771C28.8359 7.46136 28.8258 7.29937 28.9012 7.23587L29.14 7.20872C29.6488 7.15465 29.7466 7.12683 29.7466 6.16967V4.84207Z" fill="white"/>
<path d="M37.9346 7.19997C38.4437 7.15465 38.5411 7.12683 38.5411 6.16989V2.80974C38.5411 1.8528 38.4437 1.82476 37.9346 1.76216L37.7613 1.74376C37.6851 1.68026 37.6962 1.51782 37.7828 1.48192C38.1948 1.49987 38.7041 1.50929 39.1811 1.50929H41.2512C41.9455 1.50929 42.5739 1.49987 42.7148 1.48192C42.7578 1.63561 42.8231 2.34866 42.8885 2.73704C42.8453 2.80974 42.6286 2.82746 42.5416 2.77317C42.368 2.24994 42.2059 2.02377 41.8585 1.95108C41.6098 1.88825 41.2842 1.87075 40.9913 1.87075H40.2656C39.7991 1.87075 39.7991 1.88825 39.7991 2.40318V3.92934C39.7991 4.16471 39.8101 4.17346 40.0588 4.17346H40.58C41.5228 4.17346 41.7071 4.16471 41.7827 3.77632L41.8585 3.46849C41.9455 3.40611 42.1518 3.40611 42.2059 3.47769C42.1947 3.72225 42.1725 4.04714 42.1725 4.38122C42.1725 4.72473 42.1947 5.04064 42.2059 5.32985C42.1518 5.39335 41.9455 5.39335 41.8585 5.33861L41.7827 4.9776C41.7071 4.59841 41.5228 4.58046 40.58 4.58046H40.0588C39.8101 4.58046 39.7991 4.59841 39.7991 4.82413V5.97133C39.7991 6.43263 39.8205 6.7564 39.9837 6.91121C40.1138 7.03686 40.2977 7.10865 41.2086 7.10865C42.5853 7.12683 42.8231 6.86544 43.2029 6.13422C43.3005 6.06982 43.4846 6.09787 43.5499 6.18739C43.4846 6.56748 43.246 7.25337 43.0944 7.49771C42.6174 7.47999 41.6856 7.47034 40.4165 7.47034H39.1811C38.7041 7.47034 38.0432 7.47999 37.5554 7.49771C37.468 7.46159 37.4574 7.29937 37.5328 7.23587L37.9346 7.19997Z" fill="white"/>
<path d="M49.1557 7.23562C49.0588 7.29912 49.0909 7.46112 49.1776 7.49746C49.6766 7.47951 50.1639 7.47009 50.6412 7.47009C51.1177 7.47009 51.6055 7.47951 52.0831 7.49746C52.1695 7.46112 52.1805 7.29912 52.1042 7.23562L51.8665 7.20848C51.357 7.1544 51.259 7.12658 51.259 6.16965V5.01347C51.259 4.82388 51.27 4.81445 51.5952 4.81445C51.9533 4.81445 52.0719 4.85103 52.2677 5.12162C52.527 5.47365 52.8306 5.97108 53.1235 6.35004C53.785 7.1903 54.3486 7.54279 55.3894 7.54279C55.7691 7.54279 55.9751 7.51564 56.1048 7.48782C56.1367 7.44317 56.1367 7.34377 56.0832 7.30787C55.9521 7.29912 55.6386 7.24437 55.3353 7.02786C54.825 6.6756 54.2831 5.90758 53.4155 4.68836C53.3729 4.63316 53.3515 4.56181 53.4155 4.53422C53.9474 4.35427 54.7173 3.93829 54.7173 3.10723C54.7173 2.45678 54.3163 2.0325 53.7626 1.78816C53.2861 1.57164 52.5496 1.48167 51.7037 1.48167C50.8141 1.48167 49.8928 1.50904 49.2104 1.56244C49.1242 1.60754 49.1242 1.75271 49.1994 1.81576L49.4815 1.84291C49.9906 1.888 50.0014 1.99615 50.0014 2.86289V6.16965C50.0014 7.12658 49.9042 7.1544 49.3943 7.20848L49.1557 7.23562ZM53.3298 3.1797C53.3298 4.03769 52.8422 4.47162 51.7799 4.47162C51.259 4.47162 51.259 4.45367 51.259 4.16446V2.28536C51.259 1.8705 51.27 1.84291 51.8335 1.84291C52.777 1.84291 53.3298 2.46598 53.3298 3.1797Z" fill="white"/>
<path d="M68.1834 1.99661C68.0316 2.27662 68.0316 3.06259 68.0316 3.77653V5.93452C68.0316 6.20623 68.0316 7.31731 68.0643 7.52507C67.9773 7.62425 67.8259 7.66059 67.6952 7.65139C67.5223 7.46158 67.2083 7.15487 66.4279 6.41422L63.8902 4.00202C63.1856 3.34283 62.8388 2.99977 62.6545 2.86335C62.6222 2.86335 62.6222 2.96319 62.6222 3.44155V5.2033C62.6222 5.8809 62.6332 6.71151 62.8173 6.98233C62.9149 7.11829 63.0996 7.17281 63.3701 7.20871L63.6092 7.23609C63.7069 7.29958 63.6949 7.47033 63.5865 7.49793C63.1856 7.47998 62.7633 7.47033 62.3506 7.47033C61.8963 7.47033 61.6027 7.47998 61.2237 7.49793C61.1374 7.45238 61.1152 7.29958 61.2022 7.23609L61.4401 7.19054C61.6467 7.16406 61.8418 7.12704 61.918 6.98233C62.0584 6.70321 62.0584 5.91702 62.0584 5.2033V3.06259C62.0584 2.35807 62.069 2.2138 61.7009 1.95106C61.5814 1.87074 61.278 1.7976 61.1262 1.77112L60.9636 1.74375C60.8882 1.68945 60.8988 1.50928 61.0067 1.48213C61.4193 1.51803 62.0151 1.50928 62.2856 1.50928C62.5139 1.50928 62.7736 1.50008 63.034 1.48213C63.2187 1.87074 64.4008 3.00829 64.7789 3.35135L65.8634 4.32736C66.3189 4.74312 67.3269 5.70005 67.4355 5.7548C67.4676 5.72765 67.4676 5.68188 67.4676 5.53806V3.77653C67.4676 3.09826 67.457 2.26742 67.2619 1.99661C67.1646 1.86154 66.9908 1.80679 66.7201 1.77112L66.4707 1.74375C66.3732 1.68025 66.3837 1.50928 66.492 1.48213C66.9152 1.50008 67.3155 1.50928 67.7391 1.50928C68.2049 1.50928 68.4866 1.50008 68.8775 1.48213C68.9636 1.52701 68.9851 1.68025 68.8988 1.74375L68.6492 1.78862C68.4433 1.81599 68.2596 1.85301 68.1834 1.99661Z" fill="white"/>
<path d="M77.8543 7.61502C80.044 7.61502 81.6694 6.28698 81.6694 4.5075C81.6694 2.86287 80.3801 1.36386 77.8763 1.36386C75.5998 1.36386 73.9952 2.72803 73.9952 4.571C73.9952 6.17816 75.4043 7.61502 77.8543 7.61502ZM77.9628 7.25311C76.1095 7.25311 75.4695 5.55508 75.4695 4.30894C75.4695 2.38452 76.6511 1.7251 77.7352 1.7251C79.4584 1.7251 80.1953 3.30623 80.1953 4.6704C80.1953 6.48577 79.1985 7.25311 77.9628 7.25311Z" fill="white"/>
<path d="M93.0112 2.15884C92.7067 2.59277 92.3929 3.19767 91.9047 4.1104L91.2981 5.23C90.865 6.05209 90.3551 7.10843 90.1707 7.56995C90.1494 7.5971 90.0628 7.61505 89.9857 7.61505C89.9099 7.61505 89.8346 7.5971 89.7805 7.56995C89.6509 7.20849 89.4771 6.76536 89.2818 6.38596L87.3841 2.58379C87.0817 1.97822 86.9835 1.85257 86.5503 1.77965L86.289 1.73455C86.2139 1.67061 86.2139 1.50906 86.3218 1.48169C86.7454 1.49964 87.2114 1.50906 87.6343 1.50906C88.1221 1.50906 88.4901 1.49964 89.0649 1.48169C89.1629 1.53576 89.1734 1.68003 89.0757 1.74331L88.8052 1.79738C88.5661 1.84293 88.4796 1.88802 88.4796 1.95982C88.4796 2.04104 88.5661 2.24073 89.0104 3.16177L89.7911 4.76915C89.9857 5.17616 90.2795 5.70858 90.3869 5.9168C90.9729 4.77835 91.6228 3.53175 92.1976 2.30311C92.3718 1.94187 92.3391 1.87052 92.0126 1.80658L91.6991 1.74331C91.6228 1.67061 91.6338 1.52656 91.7204 1.48169C92.1649 1.49964 92.5338 1.50906 92.8811 1.50906C93.2713 1.50906 93.6286 1.49964 93.9327 1.48169C94.019 1.52656 94.0078 1.67061 93.9536 1.74331L93.6833 1.78818C93.4337 1.83328 93.1951 1.89722 93.0112 2.15884Z" fill="white"/>
<path d="M4.31205 63.9526C2.12259 63.9526 1.25452 62.5158 1.25452 60.84C1.25452 58.579 2.67518 57.7246 4.55884 57.7246C6.01804 57.7246 7.08338 58.3739 7.30992 59.5983H6.61994C6.34301 58.5873 5.59359 58.2012 4.38139 58.2012C2.66549 58.2012 1.92598 59.4253 1.92598 60.8222C1.92598 62.1449 2.50763 63.4763 4.43996 63.4763C5.66293 63.4763 6.4229 62.7864 6.68864 61.8496H7.38831C7.07304 62.9917 6.21509 63.9526 4.31205 63.9526Z" fill="white"/>
<path d="M29.5091 63.7971L26.7871 57.8807H26.0273L23.2371 63.7971H23.927L24.7652 61.9402H27.9993L28.8183 63.7971H29.5091ZM27.7732 61.4639H24.9926L26.3822 58.3566L27.7732 61.4639Z" fill="white"/>
<path d="M50.4133 62.129C50.4133 63.1566 49.7227 63.3206 48.2435 63.3206H46.5377V60.9703H48.3231C49.5844 60.9703 50.4133 61.151 50.4133 62.129ZM51.0843 62.129C51.0843 61.3484 50.6002 60.7812 49.6241 60.6578V60.6416C50.1965 60.5598 50.7585 60.1893 50.7585 59.3679C50.7585 58.4807 50.0978 57.8806 48.4308 57.8806H45.8671V63.7972H48.7672C50.1179 63.7972 51.0843 63.3615 51.0843 62.129ZM50.0875 59.3679C50.0875 60.0834 49.6338 60.494 48.234 60.494H46.5377V58.3567H48.0858C49.5551 58.3567 50.0875 58.6286 50.0875 59.3679Z" fill="white"/>
<path d="M67.8478 63.7971V57.8807H68.5184V63.3205H72.3251V63.7971H67.8478Z" fill="white"/>
<path d="M88.5182 63.7971V57.8807H93.2412V58.3566H89.1886V60.4939H92.8474V60.9702H89.1886V63.3205H93.3396V63.7971H88.5182Z" fill="white"/>
<path d="M77.8502 31.5046C78.8858 31.987 79.9189 32.4902 80.9497 33.0213C79.9189 33.5524 78.8858 34.0556 77.85 34.5378C76.6397 33.9993 75.4262 33.4958 74.2097 33.0215C75.4267 32.5468 76.6402 32.0433 77.8502 31.5046ZM68.9922 31.1893C67.0352 30.5772 65.0725 30.0374 63.1031 29.5902C65.0725 29.1431 67.0356 28.603 68.9927 27.9909C70.4687 28.4745 71.9406 29.0085 73.4091 29.5898C71.9406 30.1714 70.4683 30.7054 68.9922 31.1893ZM68.9931 38.0514C67.0364 37.4393 65.0742 36.8993 63.1052 36.4521C65.0738 36.0052 67.036 35.4653 68.9922 34.8535C70.4683 35.3372 71.9406 35.8712 73.4086 36.4526C71.9406 37.0339 70.4687 37.5675 68.9931 38.0514ZM57.8921 40.7569C49.1803 42.1455 40.3665 41.848 31.644 39.8832C35.8648 38.9323 40.107 38.3745 44.3485 38.2078C46.1361 38.2751 47.9235 38.2729 49.7097 38.2069C52.4433 38.313 55.1726 38.5765 57.8921 39.0099C59.3974 39.25 60.9011 39.5424 62.4017 39.8832C60.9011 40.2242 59.3974 40.5166 57.8921 40.7569ZM27.2868 30.5061C26.5025 30.7238 25.7365 30.9533 24.9796 31.1884C23.4411 30.6867 21.9634 30.1498 20.5483 29.5902C21.9634 29.03 23.4409 28.4933 24.9794 27.9918C25.7363 28.2267 26.5023 28.4567 27.2868 28.6744C28.5036 29.0116 29.7224 29.3154 30.9428 29.5902C29.7224 29.8649 28.5036 30.1684 27.2868 30.5061ZM27.2868 37.3678C26.5023 37.5854 25.7361 37.8152 24.9791 38.0503C23.4411 37.5488 21.9638 37.0121 20.549 36.4526C21.964 35.8928 23.4418 35.3559 24.98 34.8544C25.7367 35.0895 26.5025 35.3191 27.2868 35.5367C28.5031 35.8739 29.7214 36.1775 30.9417 36.4523C29.7214 36.727 28.5031 37.0305 27.2868 37.3678ZM16.096 34.53C15.03 34.0307 14.0116 33.5257 13.0441 33.0213C14.0116 32.5169 15.0298 32.0119 16.0958 31.5124C17.2543 32.0276 18.4594 32.5331 19.7173 33.0213C18.4597 33.5095 17.2546 34.0153 16.096 34.53ZM62.4006 33.0213C60.9005 33.3623 59.3974 33.6547 57.8921 33.8948C55.1735 34.328 52.4448 34.5912 49.7122 34.6976C47.9248 34.6314 46.1359 34.6293 44.3472 34.6967C40.1061 34.5297 35.8646 33.9722 31.6446 33.0215C35.8679 32.07 40.1122 31.5124 44.3561 31.3457C46.1383 31.4123 47.9205 31.4108 49.701 31.345C52.4373 31.4505 55.1696 31.7141 57.8921 32.148C59.3974 32.3881 60.9005 32.6803 62.4006 33.0213ZM57.8916 25.2853C59.3974 25.5253 60.9009 25.8177 62.4013 26.1587C60.9009 26.4996 59.3974 26.7921 57.8921 27.032C55.17 27.4661 52.4377 27.7298 49.7015 27.8354C47.9205 27.7697 46.1379 27.7679 44.3552 27.8346C40.1115 27.6681 35.8672 27.1101 31.6442 26.1587C40.3667 24.1935 49.1803 23.8962 57.8916 25.2853ZM93.5597 11.4794C85.5599 17.2957 77.3344 21.593 68.9927 24.3268C65.45 23.2184 61.8855 22.3696 58.3058 21.8037C47.9993 20.1744 37.5629 20.7932 27.2868 23.6431C26.5023 23.8608 25.7363 24.0907 24.9794 24.3256C11.6339 19.9747 2.78007 12.9634 1.03918 11.513V15.9143C4.35449 18.3967 10.8206 22.7057 19.7169 26.1587C18.4592 26.647 17.2541 27.1529 16.0955 27.6676C7.76131 23.7623 2.36229 19.4775 1.03918 18.3756V22.7764C3.31177 24.4775 7.06358 27.036 12.0636 29.5902C11.1365 30.0639 10.2503 30.5371 9.41046 31.0056C4.88145 28.3353 1.96217 26.0071 1.03918 25.2382V29.638C2.27098 30.56 3.93413 31.7325 5.99782 33.0213C3.93413 34.3101 2.27098 35.4828 1.03918 36.4048V40.8047C1.96217 40.036 4.88145 37.7075 9.41025 35.037C10.2503 35.5055 11.1367 35.9789 12.0638 36.4526C7.0638 39.0068 3.31177 41.5653 1.03918 43.2662V47.6677C2.36229 46.5656 7.76153 42.2806 16.096 38.375C17.2543 38.8897 18.4592 39.3952 19.7164 39.8836C10.8204 43.3367 4.35449 47.6455 1.03918 50.1272V54.5289C2.78007 53.0781 11.6339 46.0672 24.9787 41.7165C25.7361 41.9519 26.5021 42.1812 27.2868 42.3986C37.5629 45.249 47.9993 45.8678 58.3058 44.238C61.8855 43.6725 65.45 42.8235 68.9931 41.7156C77.3349 44.4489 85.5599 48.746 93.5597 54.5619V50.3152C87.2326 45.9221 80.766 42.4408 74.2106 39.8836C75.4271 39.4089 76.6402 38.9054 77.85 38.3671C83.1603 40.8412 88.4071 43.957 93.5597 47.7029V43.4574C89.7136 40.7872 85.8171 38.4481 81.8796 36.4526C82.789 35.9915 83.6967 35.5138 84.6018 35.0164C87.6152 36.7492 90.6028 38.6924 93.5597 40.8415V36.5968C91.7334 35.3314 89.8958 34.138 88.0477 33.0213C89.8958 31.9046 91.7334 30.7114 93.5597 29.4462V25.2011C90.6028 27.3506 87.6152 29.2936 84.6018 31.0262C83.6967 30.529 82.7895 30.0511 81.8801 29.5902C85.8175 27.5945 89.714 25.2554 93.5597 22.5852V18.3404C88.4071 22.086 83.1607 25.2009 77.8502 27.6755C76.6402 27.137 75.4267 26.6333 74.2097 26.1587C80.7652 23.6014 87.2321 20.1194 93.5597 15.7262V11.4794Z" fill="white"/>
</svg>
