<svg width="24" height="24" viewBox="0 0 24 24" fill="none" xmlns="http://www.w3.org/2000/svg">
<path fill-rule="evenodd" clip-rule="evenodd" d="M20.8812 7.59995C20.9103 7.71277 20.9249 7.8961 20.9249 8.14995C20.9249 10.1807 20.4145 12.141 19.3937 14.0307C18.3437 16.0333 16.8708 17.6269 14.9749 18.8115C12.9041 20.1371 10.527 20.8 7.84368 20.8C5.27701 20.8 2.92909 20.1371 0.799927 18.8115C1.12076 18.8397 1.48534 18.8538 1.89368 18.8538C4.02284 18.8538 5.93326 18.2192 7.62493 16.95C6.60409 16.95 5.70722 16.6608 4.9343 16.0826C4.16138 15.5044 3.62909 14.7782 3.33743 13.9038C3.62909 13.932 3.90618 13.9461 4.16868 13.9461C4.57701 13.9461 4.98534 13.9038 5.39368 13.8192C4.34368 13.5935 3.46868 13.0717 2.76868 12.2538C2.06868 11.4358 1.71868 10.5051 1.71868 9.46149V9.37687C2.36034 9.74354 3.04576 9.94098 3.77493 9.96918C3.16243 9.54611 2.66659 9.01021 2.28743 8.36149C1.90826 7.71277 1.71868 7.00059 1.71868 6.22495C1.71868 5.44931 1.93743 4.70893 2.37493 4.0038C3.51243 5.38585 4.90513 6.48585 6.55305 7.3038C8.20097 8.12175 9.95826 8.57303 11.8249 8.65764C11.7666 8.31918 11.7374 7.98072 11.7374 7.64226C11.7374 6.85252 11.9416 6.11213 12.3499 5.42111C12.7583 4.73008 13.3124 4.18713 14.0124 3.79226C14.7124 3.39739 15.4708 3.19995 16.2874 3.19995C16.9583 3.19995 17.578 3.32687 18.1468 3.58072C18.7155 3.83457 19.2187 4.17303 19.6562 4.59611C20.7062 4.39867 21.6833 4.04611 22.5874 3.53841C22.2374 4.582 21.5666 5.39995 20.5749 5.99226C21.4499 5.87944 22.3249 5.6397 23.1999 5.27303C22.5583 6.17559 21.7853 6.95123 20.8812 7.59995Z" fill="#BDBDBD"/>
</svg>
