<svg width="24" height="24" viewBox="0 0 24 24" fill="none" xmlns="http://www.w3.org/2000/svg">
<path d="M9.75993 15.4286V8.57143L15.5794 12L9.75993 15.4286ZM22.7318 6.49854C22.4742 5.51517 21.7153 4.74058 20.7514 4.47772C19.0047 4 11.9999 4 11.9999 4C11.9999 4 4.9952 4 3.24825 4.47772C2.28455 4.74058 1.52544 5.51517 1.26809 6.49854C0.799928 8.28089 0.799927 12 0.799927 12C0.799927 12 0.799928 15.7191 1.26809 17.5015C1.52544 18.4851 2.28455 19.2594 3.24825 19.5223C4.9952 20 11.9999 20 11.9999 20C11.9999 20 19.0047 20 20.7514 19.5223C21.7153 19.2594 22.4742 18.4851 22.7318 17.5015C23.1999 15.7191 23.1999 12 23.1999 12C23.1999 12 23.1999 8.28089 22.7318 6.49854Z" fill="#BDBDBD"/>
</svg>
